<svg version="1.1" xmlns="http://www.w3.org/2000/svg" xmlns:xlink="http://www.w3.org/1999/xlink" width="483.64114" height="364.38905" viewBox="0,0,483.64114,364.38905"><g transform="translate(1.82057,2.19452)"><g data-paper-data="{&quot;isPaintingLayer&quot;:true}" fill-rule="nonzero" stroke-linecap="butt" stroke-linejoin="miter" stroke-miterlimit="10" stroke-dasharray="" stroke-dashoffset="0" style="mix-blend-mode: normal"><path d="M3.92943,356.44454v-352.88905h472.14114v352.88905z" fill="none" stroke="#000000" stroke-width="11.5"/><path d="" fill="#000000" stroke="none" stroke-width="0.5"/><path d="M242.25424,355.70732c0,0 0,2.5 -2.5,2.5c-2.5,0 -2.5,-2.5 -2.5,-2.5c0,-1.83043 0.00562,-3.65989 0.01602,-5.48855l2.97549,0.74387h2.02191c-0.00873,1.58086 -0.01342,3.16238 -0.01342,4.74468z" fill="#000000" stroke="none" stroke-width="0.5"/><path d="" fill="#000000" stroke="none" stroke-width="0.5"/><path d="M262.3713,352.18636l0.03402,0.08049c0,0 0,2.5 -2.5,2.5c-2.5,0 -2.5,-2.5 -2.5,-2.5l0.03402,-0.90249c0.01666,-0.09812 0.03332,-0.19622 0.04998,-0.29434c1.66908,0.64314 3.28653,0.69589 5.01221,0.32185c-0.04341,0.26483 -0.08682,0.52965 -0.13024,0.79449z" fill="#000000" stroke="none" stroke-width="0.5"/></g></g></svg>